<svg xmlns="http://www.w3.org/2000/svg" viewBox="0 0 200 200"><rect width="200" height="200" fill="#F8E8E0"></rect><g fill="#C44569" opacity="0.85"><g transform="translate(40 50)"><circle cx="0" cy="-12" r="9"></circle><circle cx="11" cy="-4" r="9"></circle><circle cx="7" cy="9" r="9"></circle><circle cx="-7" cy="9" r="9"></circle><circle cx="-11" cy="-4" r="9"></circle><circle cx="0" cy="0" r="5" fill="#F5C518"></circle></g><g transform="translate(140 90)"><circle cx="0" cy="-12" r="9"></circle><circle cx="11" cy="-4" r="9"></circle><circle cx="7" cy="9" r="9"></circle><circle cx="-7" cy="9" r="9"></circle><circle cx="-11" cy="-4" r="9"></circle><circle cx="0" cy="0" r="5" fill="#F5C518"></circle></g><g transform="translate(80 140)"><circle cx="0" cy="-12" r="9"></circle><circle cx="11" cy="-4" r="9"></circle><circle cx="7" cy="9" r="9"></circle><circle cx="-7" cy="9" r="9"></circle><circle cx="-11" cy="-4" r="9"></circle><circle cx="0" cy="0" r="5" fill="#F5C518"></circle></g></g><g stroke="#5A7A3E" stroke-width="2" fill="none" opacity="0.6" stroke-linecap="round"><path d="M40 50 Q60 80 80 140"></path><path d="M140 90 Q110 110 80 140"></path><path d="M40 50 Q90 70 140 90"></path></g><g fill="#5A7A3E" opacity="0.7"><ellipse cx="60" cy="100" rx="6" ry="3" transform="rotate(35 60 100)"></ellipse><ellipse cx="120" cy="60" rx="6" ry="3" transform="rotate(-25 120 60)"></ellipse><ellipse cx="100" cy="170" rx="6" ry="3" transform="rotate(15 100 170)"></ellipse></g></svg>